<svg xmlns="http://www.w3.org/2000/svg" width="250" height="250" fill="none" viewBox="0 0 250 250">
<!-- SVG created with Arrow, by QuiverAI (https://quiver.ai) -->
  <path d="m155.7 37.83 14.06-14.81h7.57c0.76 4.38 4.12 6.94 7.76 6.44 4.57-0.61 6.29-4.32 5.8-7.86-0.57-4.09-4.09-5.02-5.8-4.85-3.33 0.35-5.27 2.46-6.46 6.27" stroke="url(#paint0_linear_4686_761)" stroke-linecap="round" stroke-linejoin="round" stroke-miterlimit="10" stroke-width="6"/>
  <path d="m159.4 144.9 15.34 15.87-13.55 13.55-15.45-15.96 13.66-13.46z" fill="url(#paint1_linear_4686_761)" stroke="url(#paint2_linear_4686_761)" stroke-linecap="round" stroke-linejoin="round" stroke-miterlimit="10" stroke-width="6"/>
  <path d="m93.51 10.31c-45.36 0-83.25 36.3-83.25 82.4 0 45.25 36.65 83.06 83.19 83.06 46.02 0 82.96-36.95 82.96-82.11 0-45.77-37.02-83.35-82.9-83.35zm-0.11 149.4c-36.81 0-66.78-29.97-66.78-66.23 0-36.29 30.23-67.49 67.19-67.49 36.17 0 66.2 30.6 66.2 66.47 0 36.29-29.9 67.25-66.61 67.25z" fill="url(#paint3_linear_4686_761)" stroke="url(#paint4_linear_4686_761)" stroke-linecap="round" stroke-linejoin="round" stroke-miterlimit="10" stroke-width="6"/>
  <path d="m180.7 157.7-23.39 22.43 53.8 54.55c7.75 8.07 16.64 4.59 21.96-0.08 6.56-5.74 7.81-16.48 2.26-22.69l-54.63-54.21z" fill="url(#paint5_linear_4686_761)" stroke="url(#paint6_linear_4686_761)" stroke-linecap="round" stroke-linejoin="round" stroke-miterlimit="10" stroke-width="6"/>
  <path d="m24.28 142.7-13.36 14.77v13.93" stroke="url(#paint7_linear_4686_761)" stroke-linecap="round" stroke-linejoin="round" stroke-miterlimit="10" stroke-width="6"/>
  <path d="m70.21 66.85h67.55" stroke="url(#paint8_linear_4686_761)" stroke-linecap="round" stroke-linejoin="round" stroke-miterlimit="10" stroke-width="6"/>
  <path d="m58.49 83.44h42.15" stroke="url(#paint9_linear_4686_761)" stroke-linecap="round" stroke-linejoin="round" stroke-miterlimit="10" stroke-width="6"/>
  <path d="m112.7 83.44h24.89" stroke="url(#paint10_linear_4686_761)" stroke-linecap="round" stroke-linejoin="round" stroke-miterlimit="10" stroke-width="6"/>
  <path d="m58.49 99.59h79.13" stroke="url(#paint11_linear_4686_761)" stroke-linecap="round" stroke-linejoin="round" stroke-miterlimit="10" stroke-width="6"/>
  <path d="m58.49 116.1h79.13" stroke="url(#paint12_linear_4686_761)" stroke-linecap="round" stroke-linejoin="round" stroke-miterlimit="10" stroke-width="6"/>
  <path d="m58.49 131.8h57.9" stroke="url(#paint13_linear_4686_761)" stroke-linecap="round" stroke-linejoin="round" stroke-miterlimit="10" stroke-width="6"/>
  <path d="m10.37 197.2h67.87" stroke="url(#paint14_linear_4686_761)" stroke-linecap="round" stroke-linejoin="round" stroke-miterlimit="10" stroke-width="6"/>
  <path d="m10.37 210.8h52.58" stroke="url(#paint15_linear_4686_761)" stroke-linecap="round" stroke-linejoin="round" stroke-miterlimit="10" stroke-width="6"/>
  <path d="m10.37 224.3h21.55" stroke="url(#paint16_linear_4686_761)" stroke-linecap="round" stroke-linejoin="round" stroke-miterlimit="10" stroke-width="6"/>
  <path d="m44.69 224.3h33.55" stroke="url(#paint17_linear_4686_761)" stroke-linecap="round" stroke-linejoin="round" stroke-miterlimit="10" stroke-width="6"/>
  <path d="m10.37 238.4h61.41" stroke="url(#paint18_linear_4686_761)" stroke-linecap="round" stroke-linejoin="round" stroke-miterlimit="10" stroke-width="6"/>
  <path d="m112.7 197.2h27.98" stroke="url(#paint19_linear_4686_761)" stroke-linecap="round" stroke-linejoin="round" stroke-miterlimit="10" stroke-width="6"/>
  <path d="m113 210.8h48.04" stroke="url(#paint20_linear_4686_761)" stroke-linecap="round" stroke-linejoin="round" stroke-miterlimit="10" stroke-width="6"/>
  <path d="m113 224.3h41.92" stroke="url(#paint21_linear_4686_761)" stroke-linecap="round" stroke-linejoin="round" stroke-miterlimit="10" stroke-width="6"/>
  <path d="m112.7 238.4h17.18" stroke="url(#paint22_linear_4686_761)" stroke-linecap="round" stroke-linejoin="round" stroke-miterlimit="10" stroke-width="6"/>
  <path d="m196.4 99.92c2.8 0 3.8-3.71 1.16-4.81-2.87-1.19-4.57 2.18-3.42 3.95 0.58 0.89 1.37 0.86 2.26 0.86z" fill="url(#paint23_linear_4686_761)"/>
  <path d="m207.8 99.63h31.83" stroke="url(#paint24_linear_4686_761)" stroke-linecap="round" stroke-linejoin="round" stroke-miterlimit="10" stroke-width="6"/>
  <path d="m195.2 113.9h14.69" stroke="url(#paint25_linear_4686_761)" stroke-linecap="round" stroke-linejoin="round" stroke-miterlimit="10" stroke-width="6"/>
  <path d="m234.4 113.9h5.22" stroke="url(#paint26_linear_4686_761)" stroke-linecap="round" stroke-linejoin="round" stroke-miterlimit="10" stroke-width="6"/>
  <path d="m207.8 126.8h31.83" stroke="url(#paint27_linear_4686_761)" stroke-linecap="round" stroke-linejoin="round" stroke-miterlimit="10" stroke-width="6"/>
  <path d="m207.8 140.6h31.83" stroke="url(#paint28_linear_4686_761)" stroke-linecap="round" stroke-linejoin="round" stroke-miterlimit="10" stroke-width="6"/>
  <path d="m207.8 154.3h31.83" stroke="url(#paint29_linear_4686_761)" stroke-linecap="round" stroke-linejoin="round" stroke-miterlimit="10" stroke-width="6"/>
  <path d="m222.5 116.1c3.72 0 4.08-5.01 0.96-5.54-3.17-0.55-4.11 3.03-2.81 4.6 0.6 0.73 0.96 0.94 1.85 0.94z" fill="url(#paint30_linear_4686_761)"/>
  <path d="m195.2 129.7c3.56 0 3.54-5.38 0.44-5.38-3.4 0-3.52 4.45-1.1 5.24 0.23 0.08 0.41 0.14 0.66 0.14z" fill="url(#paint31_linear_4686_761)"/>
  <path d="m195.4 143.9c3.52 0 3.58-5.31 0.36-5.75-3.58-0.49-4.31 4.55-1.4 5.58 0.36 0.11 0.65 0.17 1.04 0.17z" fill="url(#paint32_linear_4686_761)"/>
  <path d="m10.73 186.1c3.19 0 3.49-4.12 1.36-5.25-3.11-1.57-4.93 1.9-3.51 4.16 0.57 0.89 1.27 1.09 2.15 1.09z" fill="url(#paint33_linear_4686_761)"/>
  <path d="m22.28 183.6h27.38" stroke="url(#paint34_linear_4686_761)" stroke-linecap="round" stroke-linejoin="round" stroke-miterlimit="10" stroke-width="6"/>
  <path d="m100.7 200.1c2.98 0 3.98-4.34 1.23-5.35-2.96-1.1-4.64 2.05-3.42 4.1 0.58 0.94 1.16 1.25 2.19 1.25z" fill="url(#paint35_linear_4686_761)"/>
  <path d="m100.7 213.6c3.11 0 3.2-4.86 0.06-4.86-3.33 0-3.33 4.04-1.12 4.74 0.32 0.12 0.71 0.12 1.06 0.12z" fill="url(#paint36_linear_4686_761)"/>
  <path d="m100.7 227.7c3.07 0 3.4-4.58 0.47-5.25-3.36-0.83-4.4 3.59-2.07 4.93 0.55 0.32 0.86 0.32 1.6 0.32z" fill="url(#paint37_linear_4686_761)"/>
  <path d="m100.7 242.1c3.07 0 3.2-4.77 0.23-5.08-3.23-0.35-3.9 3.4-1.73 4.62 0.45 0.26 0.76 0.46 1.5 0.46z" fill="url(#paint38_linear_4686_761)"/>
  <path d="m225 10.74-33.03 42.63h20.49l-5.29 30.07 32.42-43.35h-20.48l5.89-29.35z" fill="url(#paint39_linear_4686_761)" stroke="url(#paint40_linear_4686_761)" stroke-linecap="round" stroke-linejoin="round" stroke-miterlimit="10" stroke-width="6"/>
  <path d="m184.8 27.08c3.42 0 4.91-3.33 3.91-6.23-1.4-4.27-5.97-3.4-7.34-1.14-2.06 3.45-0.19 7.37 3.43 7.37z" fill="url(#paint41_linear_4686_761)" stroke="url(#paint42_linear_4686_761)" stroke-linecap="round" stroke-linejoin="round" stroke-miterlimit="10" stroke-width="3"/>
  <path d="m41.11 93.44c0-22.48 13.3-43.11 36.47-50.56 1.48-0.52 3.01-1 4.58-0.77" stroke="url(#paint43_linear_4686_761)" stroke-linecap="round" stroke-linejoin="round" stroke-miterlimit="10" stroke-width="6"/>
  <path d="m93.49 40.91h1.42" stroke="url(#paint44_linear_4686_761)" stroke-linecap="round" stroke-linejoin="round" stroke-miterlimit="10" stroke-width="6"/>
  <defs>
    <linearGradient id="paint0_linear_4686_761" x1="183.4" x2="183.4" y1="16.69" y2="30.07" gradientUnits="userSpaceOnUse">
      <stop stop-color="#2E6BA7" offset="0"/>
      <stop stop-color="#183961" offset="1"/>
    </linearGradient>
    <linearGradient id="paint1_linear_4686_761" x1="151.6" x2="168" y1="148.9" y2="166.4" gradientUnits="userSpaceOnUse">
      <stop stop-color="#D2F1FE" offset="0"/>
      <stop stop-color="#96D0ED" offset="1"/>
    </linearGradient>
    <linearGradient id="paint2_linear_4686_761" x1="160.2" x2="160.2" y1="144.9" y2="174.3" gradientUnits="userSpaceOnUse">
      <stop stop-color="#2E6BA7" offset="0"/>
      <stop stop-color="#183961" offset="1"/>
    </linearGradient>
    <linearGradient id="paint3_linear_4686_761" x1="93.33" x2="93.33" y1="10.31" y2="175.8" gradientUnits="userSpaceOnUse">
      <stop stop-color="#8CEFFA" offset="0"/>
      <stop stop-color="#76D4F2" offset=".23"/>
      <stop stop-color="#489CE3" offset=".73"/>
      <stop stop-color="#2E72D9" offset="1"/>
    </linearGradient>
    <linearGradient id="paint4_linear_4686_761" x1="93.33" x2="93.33" y1="7.312" y2="178.8" gradientUnits="userSpaceOnUse">
      <stop stop-color="#2E6BA7" offset="0"/>
      <stop stop-color="#183961" offset="1"/>
    </linearGradient>
    <linearGradient id="paint5_linear_4686_761" x1="172.5" x2="205.9" y1="167.8" y2="227.9" gradientUnits="userSpaceOnUse">
      <stop stop-color="#FDC855" offset="0"/>
      <stop stop-color="#F36F56" offset="1"/>
    </linearGradient>
    <linearGradient id="paint6_linear_4686_761" x1="196.4" x2="196.4" y1="156" y2="240.2" gradientUnits="userSpaceOnUse">
      <stop stop-color="#2E6BA7" offset="0"/>
      <stop stop-color="#183961" offset="1"/>
    </linearGradient>
    <linearGradient id="paint7_linear_4686_761" x1="17.6" x2="17.6" y1="142.7" y2="171.4" gradientUnits="userSpaceOnUse">
      <stop stop-color="#2E6BA7" offset="0"/>
      <stop stop-color="#183961" offset="1"/>
    </linearGradient>
    <linearGradient id="paint8_linear_4686_761" x1="70.21" x2="137.8" y1="66.85" y2="66.85" gradientUnits="userSpaceOnUse">
      <stop stop-color="#FDC855" offset="0"/>
      <stop stop-color="#F36F56" offset="1"/>
    </linearGradient>
    <linearGradient id="paint9_linear_4686_761" x1="58.49" x2="100.6" y1="83.44" y2="83.44" gradientUnits="userSpaceOnUse">
      <stop stop-color="#2E6BA7" offset="0"/>
      <stop stop-color="#183961" offset="1"/>
    </linearGradient>
    <linearGradient id="paint10_linear_4686_761" x1="112.7" x2="137.6" y1="83.44" y2="83.44" gradientUnits="userSpaceOnUse">
      <stop stop-color="#2E6BA7" offset="0"/>
      <stop stop-color="#183961" offset="1"/>
    </linearGradient>
    <linearGradient id="paint11_linear_4686_761" x1="58.49" x2="137.6" y1="99.59" y2="99.59" gradientUnits="userSpaceOnUse">
      <stop stop-color="#2E6BA7" offset="0"/>
      <stop stop-color="#183961" offset="1"/>
    </linearGradient>
    <linearGradient id="paint12_linear_4686_761" x1="58.49" x2="139.5" y1="116.1" y2="116.1" gradientUnits="userSpaceOnUse">
      <stop stop-color="#2E6BA7" offset="0"/>
      <stop stop-color="#183961" offset="1"/>
    </linearGradient>
    <linearGradient id="paint13_linear_4686_761" x1="58.49" x2="118.2" y1="131.7" y2="131.7" gradientUnits="userSpaceOnUse">
      <stop stop-color="#2E6BA7" offset="0"/>
      <stop stop-color="#183961" offset="1"/>
    </linearGradient>
    <linearGradient id="paint14_linear_4686_761" x1="10.37" x2="79.92" y1="197.2" y2="197.2" gradientUnits="userSpaceOnUse">
      <stop stop-color="#2E6BA7" offset="0"/>
      <stop stop-color="#296192" offset="1"/>
    </linearGradient>
    <linearGradient id="paint15_linear_4686_761" x1="10.37" x2="64.72" y1="210.8" y2="210.8" gradientUnits="userSpaceOnUse">
      <stop stop-color="#2E6BA7" offset="0"/>
      <stop stop-color="#296192" offset="1"/>
    </linearGradient>
    <linearGradient id="paint16_linear_4686_761" x1="10.37" x2="33.68" y1="224.3" y2="224.3" gradientUnits="userSpaceOnUse">
      <stop stop-color="#2E6BA7" offset="0"/>
      <stop stop-color="#296192" offset="1"/>
    </linearGradient>
    <linearGradient id="paint17_linear_4686_761" x1="43.01" x2="79.99" y1="224.3" y2="224.3" gradientUnits="userSpaceOnUse">
      <stop stop-color="#2E6BA7" offset="0"/>
      <stop stop-color="#296192" offset="1"/>
    </linearGradient>
    <linearGradient id="paint18_linear_4686_761" x1="10.37" x2="73.54" y1="238.4" y2="238.4" gradientUnits="userSpaceOnUse">
      <stop stop-color="#2E6BA7" offset="0"/>
      <stop stop-color="#296192" offset="1"/>
    </linearGradient>
    <linearGradient id="paint19_linear_4686_761" x1="112.7" x2="142.5" y1="197.2" y2="197.2" gradientUnits="userSpaceOnUse">
      <stop stop-color="#2E6BA7" offset="0"/>
      <stop stop-color="#296192" offset="1"/>
    </linearGradient>
    <linearGradient id="paint20_linear_4686_761" x1="113" x2="162.8" y1="210.8" y2="210.8" gradientUnits="userSpaceOnUse">
      <stop stop-color="#2E6BA7" offset="0"/>
      <stop stop-color="#296192" offset="1"/>
    </linearGradient>
    <linearGradient id="paint21_linear_4686_761" x1="113" x2="156.7" y1="224.3" y2="224.3" gradientUnits="userSpaceOnUse">
      <stop stop-color="#2E6BA7" offset="0"/>
      <stop stop-color="#296192" offset="1"/>
    </linearGradient>
    <linearGradient id="paint22_linear_4686_761" x1="112.7" x2="131.7" y1="238.4" y2="238.4" gradientUnits="userSpaceOnUse">
      <stop stop-color="#2E6BA7" offset="0"/>
      <stop stop-color="#296192" offset="1"/>
    </linearGradient>
    <linearGradient id="paint23_linear_4686_761" x1="195.5" x2="196.3" y1="96.18" y2="101.2" gradientUnits="userSpaceOnUse">
      <stop stop-color="#76D0E9" offset="0"/>
      <stop stop-color="#4895D0" offset="1"/>
    </linearGradient>
    <linearGradient id="paint24_linear_4686_761" x1="207.8" x2="239.6" y1="99.63" y2="99.63" gradientUnits="userSpaceOnUse">
      <stop stop-color="#2E6BA7" offset="0"/>
      <stop stop-color="#183961" offset="1"/>
    </linearGradient>
    <linearGradient id="paint25_linear_4686_761" x1="195.2" x2="209.9" y1="113.9" y2="113.9" gradientUnits="userSpaceOnUse">
      <stop stop-color="#2E6BA7" offset="0"/>
      <stop stop-color="#183961" offset="1"/>
    </linearGradient>
    <linearGradient id="paint26_linear_4686_761" x1="231.9" x2="242.1" y1="113.9" y2="113.9" gradientUnits="userSpaceOnUse">
      <stop stop-color="#2E6BA7" offset="0"/>
      <stop stop-color="#183961" offset="1"/>
    </linearGradient>
    <linearGradient id="paint27_linear_4686_761" x1="207.8" x2="239.6" y1="126.8" y2="126.8" gradientUnits="userSpaceOnUse">
      <stop stop-color="#2E6BA7" offset="0"/>
      <stop stop-color="#183961" offset="1"/>
    </linearGradient>
    <linearGradient id="paint28_linear_4686_761" x1="207.8" x2="239.6" y1="140.6" y2="140.6" gradientUnits="userSpaceOnUse">
      <stop stop-color="#2E6BA7" offset="0"/>
      <stop stop-color="#183961" offset="1"/>
    </linearGradient>
    <linearGradient id="paint29_linear_4686_761" x1="207.8" x2="239.6" y1="154.3" y2="154.3" gradientUnits="userSpaceOnUse">
      <stop stop-color="#2E6BA7" offset="0"/>
      <stop stop-color="#183961" offset="1"/>
    </linearGradient>
    <linearGradient id="paint30_linear_4686_761" x1="222.5" x2="222.5" y1="110.5" y2="116.1" gradientUnits="userSpaceOnUse">
      <stop stop-color="#FDC855" offset="0"/>
      <stop stop-color="#F36F56" offset="1"/>
    </linearGradient>
    <linearGradient id="paint31_linear_4686_761" x1="195.3" x2="195.3" y1="124.3" y2="129.7" gradientUnits="userSpaceOnUse">
      <stop stop-color="#FDC855" offset="0"/>
      <stop stop-color="#F36F56" offset="1"/>
    </linearGradient>
    <linearGradient id="paint32_linear_4686_761" x1="195.7" x2="195.7" y1="138.1" y2="143.9" gradientUnits="userSpaceOnUse">
      <stop stop-color="#FDC855" offset="0"/>
      <stop stop-color="#F36F56" offset="1"/>
    </linearGradient>
    <linearGradient id="paint33_linear_4686_761" x1="10.78" x2="10.78" y1="180.4" y2="186.1" gradientUnits="userSpaceOnUse">
      <stop stop-color="#76D0E9" offset="0"/>
      <stop stop-color="#4895D0" offset="1"/>
    </linearGradient>
    <linearGradient id="paint34_linear_4686_761" x1="22.28" x2="49.66" y1="183.6" y2="183.6" gradientUnits="userSpaceOnUse">
      <stop stop-color="#F36F56" offset="0"/>
      <stop stop-color="#FDC855" offset="1"/>
    </linearGradient>
    <linearGradient id="paint35_linear_4686_761" x1="101.1" x2="101.1" y1="194.4" y2="200.1" gradientUnits="userSpaceOnUse">
      <stop stop-color="#FDC855" offset="0"/>
      <stop stop-color="#F36F56" offset="1"/>
    </linearGradient>
    <linearGradient id="paint36_linear_4686_761" x1="100.8" x2="100.8" y1="208.8" y2="213.6" gradientUnits="userSpaceOnUse">
      <stop stop-color="#76D0E9" offset="0"/>
      <stop stop-color="#4895D0" offset="1"/>
    </linearGradient>
    <linearGradient id="paint37_linear_4686_761" x1="101" x2="101" y1="222.3" y2="227.7" gradientUnits="userSpaceOnUse">
      <stop stop-color="#F36F56" offset="0"/>
      <stop stop-color="#FDC855" offset="1"/>
    </linearGradient>
    <linearGradient id="paint38_linear_4686_761" x1="100.7" x2="100.7" y1="236.9" y2="242.1" gradientUnits="userSpaceOnUse">
      <stop stop-color="#76D0E9" offset="0"/>
      <stop stop-color="#4895D0" offset="1"/>
    </linearGradient>
    <linearGradient id="paint39_linear_4686_761" x1="215.8" x2="215.8" y1="10.74" y2="83.44" gradientUnits="userSpaceOnUse">
      <stop stop-color="#FDC855" offset="0"/>
      <stop stop-color="#F36F56" offset="1"/>
    </linearGradient>
    <linearGradient id="paint40_linear_4686_761" x1="215.8" x2="215.8" y1="7.742" y2="86.44" gradientUnits="userSpaceOnUse">
      <stop stop-color="#2E6BA7" offset="0"/>
      <stop stop-color="#183961" offset="1"/>
    </linearGradient>
    <linearGradient id="paint41_linear_4686_761" x1="185" x2="185" y1="17.76" y2="27.08" gradientUnits="userSpaceOnUse">
      <stop stop-color="#8CEFFA" offset="0"/>
      <stop stop-color="#56B9E2" offset="1"/>
    </linearGradient>
    <linearGradient id="paint42_linear_4686_761" x1="185" x2="185" y1="15.73" y2="29.08" gradientUnits="userSpaceOnUse">
      <stop stop-color="#2E6BA7" offset="0"/>
      <stop stop-color="#183961" offset="1"/>
    </linearGradient>
    <linearGradient id="paint43_linear_4686_761" x1="61.64" x2="61.64" y1="41.98" y2="94.45" gradientUnits="userSpaceOnUse">
      <stop stop-color="#76D0E9" offset="0"/>
      <stop stop-color="#4895D0" offset="1"/>
    </linearGradient>
    <linearGradient id="paint44_linear_4686_761" x1="94.21" x2="94.21" y1="40.91" y2="43.47" gradientUnits="userSpaceOnUse">
      <stop stop-color="#76D0E9" offset="0"/>
      <stop stop-color="#4895D0" offset="1"/>
    </linearGradient>
  </defs>
</svg>
